<svg width="32" height="32" viewBox="0 0 32 32" fill="none" xmlns="http://www.w3.org/2000/svg">
  <!-- Background circle -->
  <circle cx="16" cy="16" r="15" fill="black" stroke="#00FFFF" stroke-width="2"/>
  
  <!-- Large outer circle -->
  <circle cx="16" cy="16" r="12" fill="none" stroke="#00FFFF" stroke-width="1.5"/>
  
  <!-- Smaller inner circle (off-center towards upper left) -->
  <circle cx="12" cy="12" r="4" fill="#00FFFF"/>
  
  <!-- Larger elliptical ring -->
  <ellipse cx="16" cy="16" rx="14" ry="10" fill="none" stroke="#00FFFF" stroke-width="1" transform="rotate(15 16 16)"/>
  
  <!-- Smaller elliptical ring -->
  <ellipse cx="16" cy="16" rx="10" ry="8" fill="none" stroke="#00FFFF" stroke-width="1" transform="rotate(-10 16 16)"/>
  
  <!-- Text "G" (simplified for small size) -->
  <path d="M8 10 L8 22 L12 22 L12 18 L10 18 L10 16 L12 16 L12 14 L10 14 L10 10 Z" fill="#00FFFF"/>
  
  <!-- Text "Q" (simplified for small size) -->
  <path d="M20 10 L24 10 L24 22 L20 22 L20 18 L22 18 L22 16 L20 16 L20 10 Z" fill="#00FFFF"/>
</svg> 